<?xml version="1.0" encoding="utf-8"?><svg viewBox="0 0 25 25" xmlns="http://www.w3.org/2000/svg" xmlns:xlink="http://www.w3.org/1999/xlink"><style>:root>svg{display:none}:root>svg:target{display:block}</style><svg fill="none" viewBox="0 0 25 24" id="buy" xmlns="http://www.w3.org/2000/svg"><path clip-rule="evenodd" d="M7.617 19.82a.766.766 0 010 1.53.764.764 0 110-1.53zM18.869 19.82a.766.766 0 11-.001 1.532.766.766 0 01.001-1.532z" stroke="#222" stroke-width="1.5" stroke-linecap="round" stroke-linejoin="round"/><path d="M2.944 3.25l2.08.36.963 11.473a1.802 1.802 0 001.797 1.653h10.912c.896 0 1.656-.658 1.785-1.546l.95-6.558a1.34 1.34 0 00-1.328-1.533H5.358M14.32 10.797h2.773" stroke="#222" stroke-width="1.5" stroke-linecap="round" stroke-linejoin="round"/></svg><svg fill="none" viewBox="0 0 25 25" id="facebook" xmlns="http://www.w3.org/2000/svg"><g clip-path="url(#bclip0_32_97)"><path d="M13.6 9.04v-3a1.5 1.5 0 011.5-1.5h1.5V.79h-3a4.5 4.5 0 00-4.5 4.5v3.75h-3v3.75h3v12h4.5v-12h3l1.5-3.75h-4.5z" fill="#222"/></g><defs><clipPath id="bclip0_32_97"><path fill="#fff" transform="translate(.1 .79)" d="M0 0h24v24H0z"/></clipPath></defs></svg><svg fill="none" viewBox="0 0 25 25" id="instagram" xmlns="http://www.w3.org/2000/svg"><g clip-path="url(#cclip0_32_105)" fill="#222"><path d="M24.077 7.846c-.056-1.276-.262-2.152-.558-2.912a5.857 5.857 0 00-1.387-2.128 5.905 5.905 0 00-2.124-1.384c-.764-.295-1.637-.501-2.912-.557C15.812.804 15.404.79 12.146.79c-3.26 0-3.667.014-4.947.07-1.275.056-2.152.263-2.911.558a5.856 5.856 0 00-2.13 1.388A5.909 5.909 0 00.777 4.929C.48 5.694.274 6.566.218 7.841.157 9.126.143 9.533.143 12.79c0 3.26.014 3.667.07 4.947.056 1.275.263 2.152.558 2.912a5.918 5.918 0 001.388 2.128c.6.61 1.327 1.083 2.124 1.383.764.296 1.636.502 2.911.558 1.28.057 1.688.07 4.947.07 3.258 0 3.666-.013 4.946-.07 1.275-.056 2.152-.262 2.911-.558a6.139 6.139 0 003.512-3.511c.295-.764.502-1.637.558-2.912.056-1.28.07-1.688.07-4.946 0-3.259-.005-3.666-.06-4.946zm-2.161 9.798c-.052 1.173-.249 1.805-.413 2.227a3.98 3.98 0 01-2.278 2.279c-.422.164-1.06.361-2.227.413-1.266.056-1.646.07-4.848.07s-3.587-.014-4.848-.07c-1.172-.052-1.805-.249-2.227-.413a3.693 3.693 0 01-1.378-.895 3.731 3.731 0 01-.896-1.379c-.164-.422-.36-1.06-.412-2.227-.057-1.266-.07-1.646-.07-4.848s.013-3.586.07-4.848c.051-1.172.248-1.805.412-2.227.192-.52.497-.993.9-1.378a3.725 3.725 0 011.379-.895c.422-.164 1.06-.361 2.227-.413 1.266-.056 1.645-.07 4.848-.07 3.207 0 3.586.014 4.848.07 1.172.052 1.805.249 2.227.413.52.192.993.496 1.378.895.398.39.703.858.895 1.378.164.422.361 1.06.413 2.227.056 1.266.07 1.646.07 4.848s-.014 3.577-.07 4.843z"/><path d="M12.145 6.626a6.167 6.167 0 00-6.165 6.166 6.167 6.167 0 006.165 6.165 6.167 6.167 0 006.166-6.165 6.167 6.167 0 00-6.166-6.166zm0 10.165a4 4 0 11.002-8 4 4 0 01-.002 8zM19.994 6.383a1.44 1.44 0 11-2.88 0 1.44 1.44 0 012.88 0z"/></g><defs><clipPath id="cclip0_32_105"><path fill="#fff" transform="translate(.1 .79)" d="M0 0h24v24H0z"/></clipPath></defs></svg><svg fill="none" viewBox="0 0 25 24" id="search" xmlns="http://www.w3.org/2000/svg"><circle cx="11.961" cy="11.767" r="8.989" stroke="#222" stroke-width="1.5" stroke-linecap="round" stroke-linejoin="round"/><path d="M18.213 18.485L21.737 22" stroke="#222" stroke-width="1.5" stroke-linecap="round" stroke-linejoin="round"/></svg><svg fill="none" viewBox="0 0 25 25" id="twitter" xmlns="http://www.w3.org/2000/svg"><g clip-path="url(#eclip0_32_101)"><path d="M24.1 5.348c-.892.392-1.843.651-2.834.777a4.893 4.893 0 002.164-2.72 9.833 9.833 0 01-3.12 1.192A4.919 4.919 0 0011.8 7.962c0 .39.033.764.114 1.121-4.09-.2-7.71-2.16-10.141-5.146a4.954 4.954 0 00-.674 2.487c0 1.704.878 3.214 2.186 4.089a4.858 4.858 0 01-2.223-.606v.054a4.943 4.943 0 003.942 4.834c-.4.11-.837.162-1.29.162a4.35 4.35 0 01-.932-.084c.638 1.949 2.447 3.381 4.598 3.428a9.886 9.886 0 01-6.1 2.098c-.404 0-.791-.018-1.178-.067a13.852 13.852 0 007.548 2.208c9.054 0 14.004-7.5 14.004-14.001 0-.218-.008-.428-.018-.636A9.816 9.816 0 0024.1 5.348z" fill="#222"/></g><defs><clipPath id="eclip0_32_101"><path fill="#fff" transform="translate(.1 .79)" d="M0 0h24v24H0z"/></clipPath></defs></svg></svg>