<?xml version="1.0" encoding="utf-8"?><svg viewBox="0 0 56 56" xmlns="http://www.w3.org/2000/svg" xmlns:xlink="http://www.w3.org/1999/xlink"><style>:root>svg{display:none}:root>svg:target{display:block}</style><svg fill="none" viewBox="0 0 15 34" id="arrow-down" xmlns="http://www.w3.org/2000/svg"><path d="M6.73 33.6a1 1 0 001.415 0l6.364-6.363a1 1 0 00-1.415-1.415L7.438 31.48 1.78 25.822a1 1 0 10-1.415 1.415L6.73 33.6zM6.437.893v32h2v-32h-2z" fill="#09A66D"/></svg><svg fill="none" viewBox="0 0 33 16" id="arrow-right" xmlns="http://www.w3.org/2000/svg"><path d="M32.707 8.676a1 1 0 000-1.414L26.343.898a1 1 0 10-1.414 1.414l5.657 5.657-5.657 5.657a1 1 0 001.414 1.414l6.364-6.364zM0 8.969h32v-2H0v2z" fill="#fff"/></svg><svg fill="none" viewBox="0 0 25 24" id="buy" xmlns="http://www.w3.org/2000/svg"><path clip-rule="evenodd" d="M7.617 19.82a.766.766 0 010 1.53.764.764 0 110-1.53zM18.869 19.82a.766.766 0 11-.001 1.532.766.766 0 01.001-1.532z" stroke="#222" stroke-width="1.5" stroke-linecap="round" stroke-linejoin="round"/><path d="M2.944 3.25l2.08.36.963 11.473a1.802 1.802 0 001.797 1.653h10.912c.896 0 1.656-.658 1.785-1.546l.95-6.558a1.34 1.34 0 00-1.328-1.533H5.358M14.32 10.797h2.773" stroke="#222" stroke-width="1.5" stroke-linecap="round" stroke-linejoin="round"/></svg><svg fill="none" viewBox="0 0 41 39" id="dilevery" xmlns="http://www.w3.org/2000/svg"><path d="M38.347 12.235h-6.783c-1.17 0-2.123.953-2.123 2.124v7.808h-2.537c.14-.513.193-1.118.159-1.821-.055-2.974-.595-5.48-1.604-7.448-.784-1.53-1.698-2.446-2.483-2.994.921-.947 1.454-2.294 1.454-3.847 0-2.796-2.23-5.07-4.971-5.07s-4.971 2.274-4.971 5.07c0 .323.262.586.586.586h.398a4.069 4.069 0 003.213 4.66c-.195.725-.292 1.579-.292 2.55l-1.461 1.256-3.556.288-4.102-1.356c-.376-.125-.802-.267-1.172 0-.364.263-.364.723-.364.874v3.05c0 .324.262.586.586.586h.697l-1.07 3.697a.586.586 0 001.126.326l1.165-4.023h1.665c-2.072 6.318-.89 10.535.928 14.803H11.78L7.394 28.45l.928-3.204a.586.586 0 10-1.126-.326l-.887 3.065a5.894 5.894 0 00-5.824 4.569.586.586 0 00.44.702l.831.191a4.492 4.492 0 004.471 4.916c.832 0 1.649-.233 2.371-.686a4.454 4.454 0 001.822-2.236l.656.15c.196.046.381.07.567-.03a.673.673 0 00.33-.45c.041-.192.072-.387.094-.584h12.255c.392 2.437 2.465 4.273 4.94 4.273 2.476 0 4.55-1.836 4.941-4.273h.448l.109.001c.167 0 .41-.018.608-.22a.75.75 0 00.207-.57 6.645 6.645 0 00-.24-1.587c.467-2.834.018-4.56-.648-5.91.421-.276.7-.751.7-1.291v-1.61h2.96c1.17 0 2.123-.953 2.123-2.125V14.36a2.126 2.126 0 00-2.123-2.124zM7.977 36.683c-.751.47-1.639.62-2.5.421a3.32 3.32 0 01-2.567-3.391l6.356 1.462a3.293 3.293 0 01-1.29 1.508zm2.93-2.333l-9.114-2.098a4.719 4.719 0 014.666-3.091l4.465 4.992a4.73 4.73 0 01-.016.197zm8.851-10.21c-.17.448-.17 1-.17 1.766v2.212h-2.145v-3.034c0-3.43 1.871-4.04 2.711-4.142H25.9c-.023.779-.199 1.332-.532 1.683-.389.41-1.054.609-2.033.61l-2.103.002c-.75 0-1.246.304-1.473.902zm-.17 5.15v1.398H15.41c.047-.434.182-.77.404-1.002.33-.345.795-.397 1.043-.397h2.731zm6.285-9.52h-5.329a21.913 21.913 0 01-.561-2.168l1.62-1.051c.884-.575 1.344-1.386 1.262-2.227a2.071 2.071 0 00-1.29-1.696c-.65-.26-1.35-.178-1.967.217.05-.56.146-1.06.283-1.486.25-.025.498-.074.741-.146A4.857 4.857 0 0022 10.671c1.128.674 3.61 2.861 3.873 9.1zm-10.17-14.3c.276-1.871 1.855-3.31 3.756-3.31 2.095 0 3.799 1.748 3.799 3.897 0 1.748-.838 3.157-2.19 3.777V6.75c0-.534-.204-1.19-1.177-1.278a.576.576 0 00-.053-.002h-4.135zm.885 1.848c0-.231.026-.457.078-.675h3.143a.908.908 0 01.081.012.705.705 0 01.006.096v3.427c-.14.02-.28.031-.42.031h-.004a2.892 2.892 0 01-2.884-2.891zm-.76 9.056l1.388-.112a.586.586 0 00.335-.14l2.505-2.154c.242-.21.5-.316.753-.316.112 0 .222.021.33.064.31.124.53.407.56.722.038.396-.222.797-.734 1.13l-2.791 1.811h-2.346v-1.005zm-2.476.2l1.304-.105v.91h-1.515c-.197 0-.245-.163-.25-.3-.004-.078.004-.467.461-.505zm-1.387-.404a1.714 1.714 0 00-.216 1.204v.005H8.91v-2.224l3.057 1.01c0 .002 0 .004-.002.005zm1.179 2.381h5.203a.585.585 0 00.32-.094l.264-.173c.128.564.273 1.113.431 1.631-1.194.353-3.091 1.493-3.091 5.169v3.092a2.446 2.446 0 00-1.305.7c-.428.45-.673 1.057-.732 1.812h-1.182c-1.191-3.432-1.644-7.085.092-12.137zm.966 14.802a47.193 47.193 0 01-.622-1.493h6.084c.788 0 1.188-.359 1.188-1.067v-4.3h4.625a.586.586 0 000-1.173h-4.62c.007-.332.028-.605.09-.765.029-.079.054-.146.376-.146l2.104-.002c1.317-.002 2.26-.32 2.881-.975.03-.03.056-.062.084-.094H34.215v1.61c0 .202-.17.372-.37.372h-5.833a.586.586 0 100 1.172H33.5c.464.86.88 1.93.855 3.62a6.337 6.337 0 00-5.165-2.646 6.31 6.31 0 00-4.52 1.89 6.454 6.454 0 00-1.842 3.998l-8.718-.002zm15.153 4.275c-1.832 0-3.377-1.32-3.75-3.102h7.5c-.374 1.782-1.919 3.102-3.75 3.102zm4.416-4.273H24.005c.288-2.65 2.503-4.717 5.185-4.717 2.354 0 4.331 1.552 4.986 3.725a5.4 5.4 0 01.2.991h-.697zm5.619-12.14a.953.953 0 01-.951.952h-7.734V19.14h8.685v2.073zm0-3.246h-8.685v-1.246h8.685v1.246zm0-2.418h-8.685v-1.192c0-.525.426-.952.95-.952h6.784c.524 0 .95.427.95.952v1.192z" fill="#09A66D"/></svg><svg fill="none" viewBox="0 0 25 25" id="facebook" xmlns="http://www.w3.org/2000/svg"><g clip-path="url(#eclip0_32_97)"><path d="M13.6 9.04v-3a1.5 1.5 0 011.5-1.5h1.5V.79h-3a4.5 4.5 0 00-4.5 4.5v3.75h-3v3.75h3v12h4.5v-12h3l1.5-3.75h-4.5z" fill="#222"/></g><defs><clipPath id="eclip0_32_97"><path fill="#fff" transform="translate(.1 .79)" d="M0 0h24v24H0z"/></clipPath></defs></svg><svg fill="none" viewBox="0 0 41 41" id="fast-time" xmlns="http://www.w3.org/2000/svg"><g clip-path="url(#fclip0_32_225)" fill="#09A66D"><path d="M3.507 12.55h6.18a.586.586 0 000-1.171h-6.18a.586.586 0 100 1.171zM9.475 15.371H7.033a.586.586 0 100 1.172h2.442a.586.586 0 100-1.172zM1.056 19.435h5.977a.586.586 0 100-1.172H1.056a.586.586 0 100 1.172zM10.272 29.822a.586.586 0 00-.586-.586h-6.18a.586.586 0 000 1.172h6.18a.586.586 0 00.586-.586zM9.475 25.244H7.033a.586.586 0 100 1.172h2.442a.586.586 0 100-1.172zM7.62 22.938a.586.586 0 00-.587-.586H1.056a.586.586 0 000 1.172h5.977a.586.586 0 00.586-.586zM25.433 13.849a.586.586 0 00.586-.586v-.894a.586.586 0 10-1.172 0v.894c0 .324.262.586.586.586zM31.875 14.451a.586.586 0 00-.828 0l-.633.633a.586.586 0 00.83.828l.631-.632a.586.586 0 000-.829zM33.063 20.308a.586.586 0 100 1.171h.894a.586.586 0 100-1.171h-.894zM31.243 25.875a.586.586 0 00-.829.828l.633.633a.586.586 0 00.828-.829l-.632-.632zM24.847 28.524v.894a.586.586 0 001.172 0v-.894a.586.586 0 10-1.172 0zM19.623 25.875l-.632.632a.586.586 0 00.828.829l.633-.633a.586.586 0 00-.829-.828zM16.908 20.308a.586.586 0 100 1.171h.894a.586.586 0 000-1.171h-.894zM20.452 15.084l-.633-.633a.586.586 0 00-.828.829l.632.632a.586.586 0 10.829-.829zM28.584 20.893a.586.586 0 00-.586-.585h-1.98v-4.35a.586.586 0 10-1.171 0v4.935c0 .324.262.586.586.586h2.565a.586.586 0 00.586-.585z"/><path d="M36.543 20.797a.586.586 0 00.55-.62c-.373-6.15-5.495-10.966-11.66-10.966-6.442 0-11.682 5.24-11.682 11.682s5.24 11.683 11.682 11.683c5.77 0 10.695-4.229 11.552-9.934a.586.586 0 00-1.16-.174c-.769 5.126-5.195 8.936-10.392 8.936-5.796 0-10.51-4.715-10.51-10.51 0-5.796 4.714-10.51 10.51-10.51 5.547 0 10.154 4.332 10.49 9.863.02.323.297.569.62.55z"/><path d="M25.433 5.857c-2.06 0-4.08.427-5.939 1.227H9.156a.586.586 0 100 1.172h8.134a15.02 15.02 0 00-3.005 2.547.586.586 0 00.869.786 13.895 13.895 0 0110.28-4.56c7.644 0 13.864 6.22 13.864 13.864 0 7.645-6.22 13.865-13.865 13.865-7.645 0-13.865-6.22-13.865-13.865 0-2.677.765-5.275 2.212-7.514a.586.586 0 10-.984-.636 14.982 14.982 0 00-2.4 8.15c0 5.295 2.75 9.958 6.898 12.638H9.156a.586.586 0 100 1.172h10.33a14.95 14.95 0 005.947 1.227c8.292 0 15.037-6.745 15.037-15.037 0-8.29-6.745-15.036-15.037-15.036z"/></g><defs><clipPath id="fclip0_32_225"><path fill="#fff" transform="translate(.47 .893)" d="M0 0h40v40H0z"/></clipPath></defs></svg><svg fill="none" viewBox="0 0 25 25" id="instagram" xmlns="http://www.w3.org/2000/svg"><g clip-path="url(#gclip0_32_105)" fill="#222"><path d="M24.077 7.846c-.056-1.276-.262-2.152-.558-2.912a5.857 5.857 0 00-1.387-2.128 5.905 5.905 0 00-2.124-1.384c-.764-.295-1.637-.501-2.912-.557C15.812.804 15.404.79 12.146.79c-3.26 0-3.667.014-4.947.07-1.275.056-2.152.263-2.911.558a5.856 5.856 0 00-2.13 1.388A5.909 5.909 0 00.777 4.929C.48 5.694.274 6.566.218 7.841.157 9.126.143 9.533.143 12.79c0 3.26.014 3.667.07 4.947.056 1.275.263 2.152.558 2.912a5.918 5.918 0 001.388 2.128c.6.61 1.327 1.083 2.124 1.383.764.296 1.636.502 2.911.558 1.28.057 1.688.07 4.947.07 3.258 0 3.666-.013 4.946-.07 1.275-.056 2.152-.262 2.911-.558a6.139 6.139 0 003.512-3.511c.295-.764.502-1.637.558-2.912.056-1.28.07-1.688.07-4.946 0-3.259-.005-3.666-.06-4.946zm-2.161 9.798c-.052 1.173-.249 1.805-.413 2.227a3.98 3.98 0 01-2.278 2.279c-.422.164-1.06.361-2.227.413-1.266.056-1.646.07-4.848.07s-3.587-.014-4.848-.07c-1.172-.052-1.805-.249-2.227-.413a3.693 3.693 0 01-1.378-.895 3.731 3.731 0 01-.896-1.379c-.164-.422-.36-1.06-.412-2.227-.057-1.266-.07-1.646-.07-4.848s.013-3.586.07-4.848c.051-1.172.248-1.805.412-2.227.192-.52.497-.993.9-1.378a3.725 3.725 0 011.379-.895c.422-.164 1.06-.361 2.227-.413 1.266-.056 1.645-.07 4.848-.07 3.207 0 3.586.014 4.848.07 1.172.052 1.805.249 2.227.413.52.192.993.496 1.378.895.398.39.703.858.895 1.378.164.422.361 1.06.413 2.227.056 1.266.07 1.646.07 4.848s-.014 3.577-.07 4.843z"/><path d="M12.145 6.626a6.167 6.167 0 00-6.165 6.166 6.167 6.167 0 006.165 6.165 6.167 6.167 0 006.166-6.165 6.167 6.167 0 00-6.166-6.166zm0 10.165a4 4 0 11.002-8 4 4 0 01-.002 8zM19.994 6.383a1.44 1.44 0 11-2.88 0 1.44 1.44 0 012.88 0z"/></g><defs><clipPath id="gclip0_32_105"><path fill="#fff" transform="translate(.1 .79)" d="M0 0h24v24H0z"/></clipPath></defs></svg><svg fill="none" viewBox="0 0 56 56" id="items" xmlns="http://www.w3.org/2000/svg"><circle cx="28" cy="28" r="28" fill="#F3FBF8"/><path d="M34.472 22h1.45c1.207 0 2.217-.86 2.45-2h-1.45c-1.207 0-2.217.86-2.45 2zM23 17.5c.05 0 .098.006.147.008l.351-3.51c.002-.295-.201-.498-.45-.498h-.095a.453.453 0 00-.453.453l.354 3.555c.049-.002.097-.008.146-.008zM19 28c0-.17.017-.337.045-.5H18v.343c.375.178.713.419 1 .712V28zM18.595 15.778l1.71 2.518c.135-.086.273-.166.416-.24l-1.029-2.828a.548.548 0 00-.765-.311l-.125.062a.548.548 0 00-.207.8zM20.691 26.5h5.569l.656-3.148c.055-.268.084-.543.084-.816 0-2.242-1.794-4.036-4-4.036s-4 1.794-4 4c0 .31.029.584.084.852l.578 2.773A2.993 2.993 0 0122 25v1c-.503 0-.957.192-1.309.5zm3.809-6h1v1h-1v-1zm0 2h1v1h-1v-1zm0 2h1v1h-1v-1zM17.5 30.5h1.45a2.504 2.504 0 00-2.45-2h-1.45c.233 1.14 1.243 2 2.45 2zM27.405 15.777a.548.548 0 00-.209-.798l-.124-.063a.546.546 0 00-.735.245.613.613 0 00-.03.066l-1.028 2.828c.143.073.281.154.416.24l1.71-2.519zM26.492 36.5H40.5v-3H25.826c.442.928.666 1.949.666 3zm12.008-2h1v1h-1v-1zM25.232 40.5H39c.827 0 1.5-.673 1.5-1.5v-1.5H26.428a6.95 6.95 0 01-1.196 3zm13.268-2h1v1h-1v-1zM20.071 27.5A1.97 1.97 0 0020 28v.5h22.5v-1H20.071zM20 30.933c.1-.024.201-.05.293-.089a3.883 3.883 0 014.413.977c.194.215.367.445.531.678H40.5v-3H20v1.434zm18.5-.433h1v1h-1v-1z" fill="#09A66D"/><path d="M23.962 32.49a2.918 2.918 0 00-3.276-.727 2.94 2.94 0 01-.686.193v.942c.497-.185.968-.575 1.147-.753l.707.708C21.736 32.971 20.674 34 19.5 34c-1.174 0-2.236-1.03-2.354-1.147l.707-.708c.179.178.65.567 1.147.753V31.5h-1.5c-.17 0-.334-.016-.497-.04-.701.05-1.443.442-1.989 1.055A5.99 5.99 0 0013.5 36.5c0 1.646.654 3.182 1.84 4.324a5.96 5.96 0 004.399 1.671c3.09-.12 5.619-2.633 5.755-5.723a5.976 5.976 0 00-1.532-4.282zM19.5 41.5c-2.757 0-5-2.243-5-5h1c0 2.205 1.794 4 4 4v1zM38.385 26.5a5.97 5.97 0 00-1.344-2.51 2.92 2.92 0 00-3.277-.726 2.85 2.85 0 01-.264.095V19c0-.827.673-1.5 1.5-1.5h.5v-1H35a2.503 2.503 0 00-2.5 2.5v4.359a2.85 2.85 0 01-.264-.096 2.92 2.92 0 00-3.277.727 5.966 5.966 0 00-1.345 2.51h10.771zm-7.632-2.431c.008.004.765.431 2.247.431 1.482 0 2.239-.427 2.246-.431l.51.86c-.038.023-.972.571-2.756.571-1.785 0-2.719-.548-2.758-.572l.511-.859z" fill="#09A66D"/></svg><svg fill="none" viewBox="0 0 29 41" id="order" xmlns="http://www.w3.org/2000/svg"><path d="M9.156 28.715h10.39a.586.586 0 000-1.172H9.157a.586.586 0 100 1.172zm1.836-13.442h6.956c.53 0 .99-.341 1.145-.849l1.46-4.81a1.185 1.185 0 00-.184-1.06 1.185 1.185 0 00-.96-.484h-.52l-1.063-2.655a1.592 1.592 0 00-1.485-1.006h-3.742c-.658 0-1.241.395-1.486 1.006L10.051 8.07h-.52c-.382 0-.732.176-.96.484a1.185 1.185 0 00-.184 1.06l1.46 4.81a1.19 1.19 0 001.145.849zm-1.48-6.021c.018-.024 3.187-.002 3.21-.01a.586.586 0 100-1.172h-1.409l.888-2.22a.426.426 0 01.398-.27h3.742c.176 0 .332.107.397.27l.888 2.22h-2.17a.586.586 0 000 1.172c.02 0 3.957-.01 3.972.01.017.023-1.457 4.807-1.457 4.832 0 .052-7 .01-7.002 0-.008-.025-1.474-4.809-1.457-4.832zM9.156 34.56a.586.586 0 100 1.172h10.39a.586.586 0 000-1.172H9.157zm15.664-1.757a.586.586 0 00-.586-.586H9.156a.586.586 0 000 1.172h15.078a.586.586 0 00.586-.586zm2.93-6.26a.586.586 0 00.586-.587V3.823a2.933 2.933 0 00-2.93-2.93H3.534a2.933 2.933 0 00-2.93 2.93v34.14a2.933 2.933 0 002.93 2.93h21.872a2.933 2.933 0 002.93-2.93v-9.272a.586.586 0 10-1.172 0v9.273a1.76 1.76 0 01-1.758 1.758H3.534a1.76 1.76 0 01-1.758-1.758V3.824c0-.97.788-1.759 1.758-1.759h21.872c.97 0 1.758.789 1.758 1.758v22.133c0 .324.262.586.586.586zM6.84 29.163c-.29.004-.592.007-.87.008.198-.267.447-.612.758-1.056.272-.39.465-.742.515-1.108.009-.06.024-.168.024-.225 0-.873-.71-1.584-1.583-1.584-.755 0-1.408.538-1.554 1.278a.586.586 0 101.15.225.412.412 0 01.814.052c.015.21-.092.355-.326.69-.616.88-.983 1.36-1.18 1.619-.345.45-.51 1.038.087 1.237.077.026 1.624.043 2.179.036a.586.586 0 10-.015-1.172zM24.233 25.2H9.156a.586.586 0 000 1.172h15.078a.586.586 0 100-1.172zM5.776 32.217c-.755 0-1.408.537-1.554 1.277a.586.586 0 101.15.225.412.412 0 11.404.492.586.586 0 000 1.172.412.412 0 11-.411.412.586.586 0 00-1.172 0c0 .86.714 1.583 1.583 1.583.873 0 1.583-.71 1.583-1.583 0-.378-.133-.725-.355-.998.222-.272.355-.62.355-.997 0-.873-.71-1.583-1.583-1.583zm0-8.935a.586.586 0 00.586-.586V18.8a.586.586 0 00-.586-.586h-.833a.586.586 0 000 1.172h.247v3.311c0 .324.262.586.586.586zm3.38-1.554h10.39a.586.586 0 100-1.171H9.157a.586.586 0 100 1.171zm15.078-3.515H9.156a.586.586 0 000 1.172h15.078a.586.586 0 000-1.172z" fill="#09A66D"/></svg><svg fill="none" viewBox="0 0 25 24" id="search" xmlns="http://www.w3.org/2000/svg"><circle cx="11.961" cy="11.767" r="8.989" stroke="#222" stroke-width="1.5" stroke-linecap="round" stroke-linejoin="round"/><path d="M18.213 18.485L21.737 22" stroke="#222" stroke-width="1.5" stroke-linecap="round" stroke-linejoin="round"/></svg><svg fill="none" viewBox="0 0 56 56" id="star" xmlns="http://www.w3.org/2000/svg"><circle cx="28" cy="28" r="28" fill="#F3FBF8"/><g clip-path="url(#kclip0_32_181)"><path d="M43.954 24.329a.937.937 0 00-.757-.639l-9.92-1.441-4.436-8.99a.937.937 0 00-1.681 0l-4.437 8.99-9.92 1.442a.937.937 0 00-.52 1.599l7.178 6.997-1.694 9.88a.938.938 0 001.36.988L28 38.49l8.873 4.665a.937.937 0 001.36-.988l-1.695-9.88 7.179-6.997a.937.937 0 00.237-.961z" fill="#FED42D"/><path d="M43.954 24.329a.937.937 0 00-.757-.639l-9.92-1.441-4.436-8.99a.937.937 0 00-.84-.522V38.49l8.872 4.665a.935.935 0 00.987-.071.938.938 0 00.373-.917l-1.695-9.88 7.179-6.997a.937.937 0 00.237-.961z" fill="#FCBF29"/></g><defs><clipPath id="kclip0_32_181"><path fill="#fff" transform="translate(12 12)" d="M0 0h32v32H0z"/></clipPath></defs></svg><svg fill="none" viewBox="0 0 25 25" id="twitter" xmlns="http://www.w3.org/2000/svg"><g clip-path="url(#lclip0_32_101)"><path d="M24.1 5.348c-.892.392-1.843.651-2.834.777a4.893 4.893 0 002.164-2.72 9.833 9.833 0 01-3.12 1.192A4.919 4.919 0 0011.8 7.962c0 .39.033.764.114 1.121-4.09-.2-7.71-2.16-10.141-5.146a4.954 4.954 0 00-.674 2.487c0 1.704.878 3.214 2.186 4.089a4.858 4.858 0 01-2.223-.606v.054a4.943 4.943 0 003.942 4.834c-.4.11-.837.162-1.29.162a4.35 4.35 0 01-.932-.084c.638 1.949 2.447 3.381 4.598 3.428a9.886 9.886 0 01-6.1 2.098c-.404 0-.791-.018-1.178-.067a13.852 13.852 0 007.548 2.208c9.054 0 14.004-7.5 14.004-14.001 0-.218-.008-.428-.018-.636A9.816 9.816 0 0024.1 5.348z" fill="#222"/></g><defs><clipPath id="lclip0_32_101"><path fill="#fff" transform="translate(.1 .79)" d="M0 0h24v24H0z"/></clipPath></defs></svg><svg fill="none" viewBox="0 0 56 56" id="user" xmlns="http://www.w3.org/2000/svg"><circle cx="28" cy="28" r="28" fill="#F3FBF8"/><g clip-path="url(#mclip0_32_166)" fill="#09A66D"><path d="M28.002 12c-4.571 0-8.308 3.737-8.308 8.308 0 4.572 3.737 8.309 8.308 8.309 4.572 0 8.309-3.737 8.309-8.309 0-4.571-3.737-8.308-8.309-8.308zM42.26 35.256a7.745 7.745 0 00-.834-1.523c-1.669-2.468-4.245-4.1-7.147-4.5-.363-.036-.762.037-1.052.255a8.74 8.74 0 01-5.225 1.705 8.74 8.74 0 01-5.224-1.706 1.361 1.361 0 00-1.052-.253 10.252 10.252 0 00-7.148 4.498 8.927 8.927 0 00-.834 1.524c-.109.218-.073.472.036.69.29.508.653 1.016.98 1.45.508.69 1.052 1.307 1.669 1.887.508.508 1.088.98 1.669 1.452A16.438 16.438 0 0027.965 44c3.556 0 7.002-1.125 9.868-3.265a15.96 15.96 0 001.67-1.452c.58-.58 1.16-1.197 1.668-1.886.363-.472.69-.943.98-1.451.181-.218.218-.472.109-.69z"/></g><defs><clipPath id="mclip0_32_166"><path fill="#fff" transform="translate(12 12)" d="M0 0h32v32H0z"/></clipPath></defs></svg></svg>