<?xml version="1.0" encoding="utf-8"?><svg viewBox="0 0 56 56" xmlns="http://www.w3.org/2000/svg" xmlns:xlink="http://www.w3.org/1999/xlink"><style>:root>svg{display:none}:root>svg:target{display:block}</style><svg fill="none" viewBox="0 0 33 16" id="arrow-right" xmlns="http://www.w3.org/2000/svg"><path d="M32.707 8.676a1 1 0 000-1.414L26.343.898a1 1 0 10-1.414 1.414l5.657 5.657-5.657 5.657a1 1 0 001.414 1.414l6.364-6.364zM0 8.969h32v-2H0v2z" fill="#fff"/></svg><svg fill="none" viewBox="0 0 25 24" id="buy" xmlns="http://www.w3.org/2000/svg"><path clip-rule="evenodd" d="M7.617 19.82a.766.766 0 010 1.53.764.764 0 110-1.53zM18.869 19.82a.766.766 0 11-.001 1.532.766.766 0 01.001-1.532z" stroke="#222" stroke-width="1.5" stroke-linecap="round" stroke-linejoin="round"/><path d="M2.944 3.25l2.08.36.963 11.473a1.802 1.802 0 001.797 1.653h10.912c.896 0 1.656-.658 1.785-1.546l.95-6.558a1.34 1.34 0 00-1.328-1.533H5.358M14.32 10.797h2.773" stroke="#222" stroke-width="1.5" stroke-linecap="round" stroke-linejoin="round"/></svg><svg fill="none" viewBox="0 0 25 25" id="facebook" xmlns="http://www.w3.org/2000/svg"><g clip-path="url(#cclip0_32_97)"><path d="M13.6 9.04v-3a1.5 1.5 0 011.5-1.5h1.5V.79h-3a4.5 4.5 0 00-4.5 4.5v3.75h-3v3.75h3v12h4.5v-12h3l1.5-3.75h-4.5z" fill="#222"/></g><defs><clipPath id="cclip0_32_97"><path fill="#fff" transform="translate(.1 .79)" d="M0 0h24v24H0z"/></clipPath></defs></svg><svg fill="none" viewBox="0 0 25 25" id="instagram" xmlns="http://www.w3.org/2000/svg"><g clip-path="url(#dclip0_32_105)" fill="#222"><path d="M24.077 7.846c-.056-1.276-.262-2.152-.558-2.912a5.857 5.857 0 00-1.387-2.128 5.905 5.905 0 00-2.124-1.384c-.764-.295-1.637-.501-2.912-.557C15.812.804 15.404.79 12.146.79c-3.26 0-3.667.014-4.947.07-1.275.056-2.152.263-2.911.558a5.856 5.856 0 00-2.13 1.388A5.909 5.909 0 00.777 4.929C.48 5.694.274 6.566.218 7.841.157 9.126.143 9.533.143 12.79c0 3.26.014 3.667.07 4.947.056 1.275.263 2.152.558 2.912a5.918 5.918 0 001.388 2.128c.6.61 1.327 1.083 2.124 1.383.764.296 1.636.502 2.911.558 1.28.057 1.688.07 4.947.07 3.258 0 3.666-.013 4.946-.07 1.275-.056 2.152-.262 2.911-.558a6.139 6.139 0 003.512-3.511c.295-.764.502-1.637.558-2.912.056-1.28.07-1.688.07-4.946 0-3.259-.005-3.666-.06-4.946zm-2.161 9.798c-.052 1.173-.249 1.805-.413 2.227a3.98 3.98 0 01-2.278 2.279c-.422.164-1.06.361-2.227.413-1.266.056-1.646.07-4.848.07s-3.587-.014-4.848-.07c-1.172-.052-1.805-.249-2.227-.413a3.693 3.693 0 01-1.378-.895 3.731 3.731 0 01-.896-1.379c-.164-.422-.36-1.06-.412-2.227-.057-1.266-.07-1.646-.07-4.848s.013-3.586.07-4.848c.051-1.172.248-1.805.412-2.227.192-.52.497-.993.9-1.378a3.725 3.725 0 011.379-.895c.422-.164 1.06-.361 2.227-.413 1.266-.056 1.645-.07 4.848-.07 3.207 0 3.586.014 4.848.07 1.172.052 1.805.249 2.227.413.52.192.993.496 1.378.895.398.39.703.858.895 1.378.164.422.361 1.06.413 2.227.056 1.266.07 1.646.07 4.848s-.014 3.577-.07 4.843z"/><path d="M12.145 6.626a6.167 6.167 0 00-6.165 6.166 6.167 6.167 0 006.165 6.165 6.167 6.167 0 006.166-6.165 6.167 6.167 0 00-6.166-6.166zm0 10.165a4 4 0 11.002-8 4 4 0 01-.002 8zM19.994 6.383a1.44 1.44 0 11-2.88 0 1.44 1.44 0 012.88 0z"/></g><defs><clipPath id="dclip0_32_105"><path fill="#fff" transform="translate(.1 .79)" d="M0 0h24v24H0z"/></clipPath></defs></svg><svg fill="none" viewBox="0 0 56 56" id="items" xmlns="http://www.w3.org/2000/svg"><circle cx="28" cy="28" r="28" fill="#F3FBF8"/><path d="M34.472 22h1.45c1.207 0 2.217-.86 2.45-2h-1.45c-1.207 0-2.217.86-2.45 2zM23 17.5c.05 0 .098.006.147.008l.351-3.51c.002-.295-.201-.498-.45-.498h-.095a.453.453 0 00-.453.453l.354 3.555c.049-.002.097-.008.146-.008zM19 28c0-.17.017-.337.045-.5H18v.343c.375.178.713.419 1 .712V28zM18.595 15.778l1.71 2.518c.135-.086.273-.166.416-.24l-1.029-2.828a.548.548 0 00-.765-.311l-.125.062a.548.548 0 00-.207.8zM20.691 26.5h5.569l.656-3.148c.055-.268.084-.543.084-.816 0-2.242-1.794-4.036-4-4.036s-4 1.794-4 4c0 .31.029.584.084.852l.578 2.773A2.993 2.993 0 0122 25v1c-.503 0-.957.192-1.309.5zm3.809-6h1v1h-1v-1zm0 2h1v1h-1v-1zm0 2h1v1h-1v-1zM17.5 30.5h1.45a2.504 2.504 0 00-2.45-2h-1.45c.233 1.14 1.243 2 2.45 2zM27.405 15.777a.548.548 0 00-.209-.798l-.124-.063a.546.546 0 00-.735.245.613.613 0 00-.03.066l-1.028 2.828c.143.073.281.154.416.24l1.71-2.519zM26.492 36.5H40.5v-3H25.826c.442.928.666 1.949.666 3zm12.008-2h1v1h-1v-1zM25.232 40.5H39c.827 0 1.5-.673 1.5-1.5v-1.5H26.428a6.95 6.95 0 01-1.196 3zm13.268-2h1v1h-1v-1zM20.071 27.5A1.97 1.97 0 0020 28v.5h22.5v-1H20.071zM20 30.933c.1-.024.201-.05.293-.089a3.883 3.883 0 014.413.977c.194.215.367.445.531.678H40.5v-3H20v1.434zm18.5-.433h1v1h-1v-1z" fill="#09A66D"/><path d="M23.962 32.49a2.918 2.918 0 00-3.276-.727 2.94 2.94 0 01-.686.193v.942c.497-.185.968-.575 1.147-.753l.707.708C21.736 32.971 20.674 34 19.5 34c-1.174 0-2.236-1.03-2.354-1.147l.707-.708c.179.178.65.567 1.147.753V31.5h-1.5c-.17 0-.334-.016-.497-.04-.701.05-1.443.442-1.989 1.055A5.99 5.99 0 0013.5 36.5c0 1.646.654 3.182 1.84 4.324a5.96 5.96 0 004.399 1.671c3.09-.12 5.619-2.633 5.755-5.723a5.976 5.976 0 00-1.532-4.282zM19.5 41.5c-2.757 0-5-2.243-5-5h1c0 2.205 1.794 4 4 4v1zM38.385 26.5a5.97 5.97 0 00-1.344-2.51 2.92 2.92 0 00-3.277-.726 2.85 2.85 0 01-.264.095V19c0-.827.673-1.5 1.5-1.5h.5v-1H35a2.503 2.503 0 00-2.5 2.5v4.359a2.85 2.85 0 01-.264-.096 2.92 2.92 0 00-3.277.727 5.966 5.966 0 00-1.345 2.51h10.771zm-7.632-2.431c.008.004.765.431 2.247.431 1.482 0 2.239-.427 2.246-.431l.51.86c-.038.023-.972.571-2.756.571-1.785 0-2.719-.548-2.758-.572l.511-.859z" fill="#09A66D"/></svg><svg fill="none" viewBox="0 0 25 24" id="search" xmlns="http://www.w3.org/2000/svg"><circle cx="11.961" cy="11.767" r="8.989" stroke="#222" stroke-width="1.5" stroke-linecap="round" stroke-linejoin="round"/><path d="M18.213 18.485L21.737 22" stroke="#222" stroke-width="1.5" stroke-linecap="round" stroke-linejoin="round"/></svg><svg fill="none" viewBox="0 0 56 56" id="star" xmlns="http://www.w3.org/2000/svg"><circle cx="28" cy="28" r="28" fill="#F3FBF8"/><g clip-path="url(#gclip0_32_181)"><path d="M43.954 24.329a.937.937 0 00-.757-.639l-9.92-1.441-4.436-8.99a.937.937 0 00-1.681 0l-4.437 8.99-9.92 1.442a.937.937 0 00-.52 1.599l7.178 6.997-1.694 9.88a.938.938 0 001.36.988L28 38.49l8.873 4.665a.937.937 0 001.36-.988l-1.695-9.88 7.179-6.997a.937.937 0 00.237-.961z" fill="#FED42D"/><path d="M43.954 24.329a.937.937 0 00-.757-.639l-9.92-1.441-4.436-8.99a.937.937 0 00-.84-.522V38.49l8.872 4.665a.935.935 0 00.987-.071.938.938 0 00.373-.917l-1.695-9.88 7.179-6.997a.937.937 0 00.237-.961z" fill="#FCBF29"/></g><defs><clipPath id="gclip0_32_181"><path fill="#fff" transform="translate(12 12)" d="M0 0h32v32H0z"/></clipPath></defs></svg><svg fill="none" viewBox="0 0 25 25" id="twitter" xmlns="http://www.w3.org/2000/svg"><g clip-path="url(#hclip0_32_101)"><path d="M24.1 5.348c-.892.392-1.843.651-2.834.777a4.893 4.893 0 002.164-2.72 9.833 9.833 0 01-3.12 1.192A4.919 4.919 0 0011.8 7.962c0 .39.033.764.114 1.121-4.09-.2-7.71-2.16-10.141-5.146a4.954 4.954 0 00-.674 2.487c0 1.704.878 3.214 2.186 4.089a4.858 4.858 0 01-2.223-.606v.054a4.943 4.943 0 003.942 4.834c-.4.11-.837.162-1.29.162a4.35 4.35 0 01-.932-.084c.638 1.949 2.447 3.381 4.598 3.428a9.886 9.886 0 01-6.1 2.098c-.404 0-.791-.018-1.178-.067a13.852 13.852 0 007.548 2.208c9.054 0 14.004-7.5 14.004-14.001 0-.218-.008-.428-.018-.636A9.816 9.816 0 0024.1 5.348z" fill="#222"/></g><defs><clipPath id="hclip0_32_101"><path fill="#fff" transform="translate(.1 .79)" d="M0 0h24v24H0z"/></clipPath></defs></svg><svg fill="none" viewBox="0 0 56 56" id="user" xmlns="http://www.w3.org/2000/svg"><circle cx="28" cy="28" r="28" fill="#F3FBF8"/><g clip-path="url(#iclip0_32_166)" fill="#09A66D"><path d="M28.002 12c-4.571 0-8.308 3.737-8.308 8.308 0 4.572 3.737 8.309 8.308 8.309 4.572 0 8.309-3.737 8.309-8.309 0-4.571-3.737-8.308-8.309-8.308zM42.26 35.256a7.745 7.745 0 00-.834-1.523c-1.669-2.468-4.245-4.1-7.147-4.5-.363-.036-.762.037-1.052.255a8.74 8.74 0 01-5.225 1.705 8.74 8.74 0 01-5.224-1.706 1.361 1.361 0 00-1.052-.253 10.252 10.252 0 00-7.148 4.498 8.927 8.927 0 00-.834 1.524c-.109.218-.073.472.036.69.29.508.653 1.016.98 1.45.508.69 1.052 1.307 1.669 1.887.508.508 1.088.98 1.669 1.452A16.438 16.438 0 0027.965 44c3.556 0 7.002-1.125 9.868-3.265a15.96 15.96 0 001.67-1.452c.58-.58 1.16-1.197 1.668-1.886.363-.472.69-.943.98-1.451.181-.218.218-.472.109-.69z"/></g><defs><clipPath id="iclip0_32_166"><path fill="#fff" transform="translate(12 12)" d="M0 0h32v32H0z"/></clipPath></defs></svg></svg>